<mxfile host="app.diagrams.net" modified="2020-11-09T19:34:25.427Z" agent="5.0 (Windows NT 10.0; Win64; x64) AppleWebKit/537.36 (KHTML, like Gecko) Chrome/86.0.4240.183 Safari/537.36" etag="7eMUC3pAxt3I6rVKq7LH" version="13.9.2" type="github">
  <diagram id="0zatQa9Q_zkhuQpF7yqE" name="Page-1">
    <mxGraphModel dx="1019" dy="519" grid="1" gridSize="10" guides="1" tooltips="1" connect="1" arrows="1" fold="1" page="1" pageScale="1" pageWidth="850" pageHeight="1400" math="0" shadow="0">
      <root>
        <mxCell id="0" />
        <mxCell id="1" parent="0" />
        <mxCell id="LSEEJIswdZfOmqSNmd1V-1" style="edgeStyle=orthogonalEdgeStyle;orthogonalLoop=1;jettySize=auto;html=1;fontSize=21;sketch=1;entryX=-0.027;entryY=0.502;entryDx=0;entryDy=0;entryPerimeter=0;" edge="1" parent="1" source="LSEEJIswdZfOmqSNmd1V-12" target="LSEEJIswdZfOmqSNmd1V-41">
          <mxGeometry relative="1" as="geometry">
            <mxPoint x="220" y="155" as="targetPoint" />
          </mxGeometry>
        </mxCell>
        <mxCell id="LSEEJIswdZfOmqSNmd1V-4" value="Login" style="text;html=1;align=center;verticalAlign=middle;resizable=0;points=[];autosize=1;fontSize=12;sketch=1;" vertex="1" parent="1">
          <mxGeometry x="145" y="130" width="40" height="20" as="geometry" />
        </mxCell>
        <mxCell id="LSEEJIswdZfOmqSNmd1V-11" value="" style="group" vertex="1" connectable="0" parent="1">
          <mxGeometry x="60" y="130" width="50" height="70" as="geometry" />
        </mxCell>
        <mxCell id="LSEEJIswdZfOmqSNmd1V-12" value="" style="shape=actor;whiteSpace=wrap;html=1;fillColor=#f5f5f5;strokeColor=#666666;fontColor=#333333;sketch=1;" vertex="1" parent="LSEEJIswdZfOmqSNmd1V-11">
          <mxGeometry x="5" width="40" height="50" as="geometry" />
        </mxCell>
        <mxCell id="LSEEJIswdZfOmqSNmd1V-13" value="Warga" style="text;html=1;align=center;verticalAlign=middle;resizable=0;points=[];autosize=1;sketch=1;" vertex="1" parent="LSEEJIswdZfOmqSNmd1V-11">
          <mxGeometry y="50" width="50" height="20" as="geometry" />
        </mxCell>
        <mxCell id="LSEEJIswdZfOmqSNmd1V-43" value="" style="group" vertex="1" connectable="0" parent="1">
          <mxGeometry x="227" y="106" width="70" height="100" as="geometry" />
        </mxCell>
        <mxCell id="LSEEJIswdZfOmqSNmd1V-41" value="" style="html=1;verticalLabelPosition=bottom;align=center;labelBackgroundColor=#ffffff;verticalAlign=top;strokeWidth=2;strokeColor=#0080F0;shadow=0;dashed=0;shape=mxgraph.ios7.icons.smartphone;" vertex="1" parent="LSEEJIswdZfOmqSNmd1V-43">
          <mxGeometry width="70" height="100" as="geometry" />
        </mxCell>
        <mxCell id="LSEEJIswdZfOmqSNmd1V-42" value="MasApp" style="text;html=1;align=center;verticalAlign=middle;resizable=0;points=[];autosize=1;" vertex="1" parent="LSEEJIswdZfOmqSNmd1V-43">
          <mxGeometry x="5" y="40" width="60" height="20" as="geometry" />
        </mxCell>
        <mxCell id="LSEEJIswdZfOmqSNmd1V-48" value="" style="edgeStyle=orthogonalEdgeStyle;rounded=0;orthogonalLoop=1;jettySize=auto;html=1;" edge="1" parent="1" source="LSEEJIswdZfOmqSNmd1V-44" target="LSEEJIswdZfOmqSNmd1V-47">
          <mxGeometry relative="1" as="geometry" />
        </mxCell>
        <mxCell id="LSEEJIswdZfOmqSNmd1V-44" value="Menu Surat Baru SKTM" style="whiteSpace=wrap;html=1;shadow=0;dashed=0;verticalAlign=middle;strokeColor=#0080F0;strokeWidth=2;labelBackgroundColor=#ffffff;" vertex="1" parent="1">
          <mxGeometry x="390" y="126" width="120" height="60" as="geometry" />
        </mxCell>
        <mxCell id="LSEEJIswdZfOmqSNmd1V-45" value="" style="edgeStyle=orthogonalEdgeStyle;rounded=0;orthogonalLoop=1;jettySize=auto;html=1;" edge="1" parent="1" source="LSEEJIswdZfOmqSNmd1V-41" target="LSEEJIswdZfOmqSNmd1V-44">
          <mxGeometry relative="1" as="geometry" />
        </mxCell>
        <mxCell id="LSEEJIswdZfOmqSNmd1V-46" value="Pilih" style="text;html=1;align=center;verticalAlign=middle;resizable=0;points=[];autosize=1;" vertex="1" parent="1">
          <mxGeometry x="321" y="136" width="40" height="20" as="geometry" />
        </mxCell>
        <mxCell id="LSEEJIswdZfOmqSNmd1V-50" value="" style="edgeStyle=orthogonalEdgeStyle;rounded=0;orthogonalLoop=1;jettySize=auto;html=1;" edge="1" parent="1" source="LSEEJIswdZfOmqSNmd1V-47" target="LSEEJIswdZfOmqSNmd1V-49">
          <mxGeometry relative="1" as="geometry" />
        </mxCell>
        <mxCell id="LSEEJIswdZfOmqSNmd1V-47" value="Isi Alasan &amp;amp; upload berkas2" style="whiteSpace=wrap;html=1;shadow=0;dashed=0;strokeColor=#0080F0;strokeWidth=2;labelBackgroundColor=#ffffff;" vertex="1" parent="1">
          <mxGeometry x="590" y="126" width="120" height="60" as="geometry" />
        </mxCell>
        <mxCell id="LSEEJIswdZfOmqSNmd1V-54" style="edgeStyle=orthogonalEdgeStyle;rounded=0;orthogonalLoop=1;jettySize=auto;html=1;entryX=1.138;entryY=0.72;entryDx=0;entryDy=0;entryPerimeter=0;" edge="1" parent="1" source="LSEEJIswdZfOmqSNmd1V-49" target="LSEEJIswdZfOmqSNmd1V-52">
          <mxGeometry relative="1" as="geometry" />
        </mxCell>
        <mxCell id="LSEEJIswdZfOmqSNmd1V-49" value="Permohonan SKTM baru dari warga ....." style="whiteSpace=wrap;html=1;shadow=0;dashed=0;strokeColor=#0080F0;strokeWidth=2;labelBackgroundColor=#ffffff;" vertex="1" parent="1">
          <mxGeometry x="590" y="266" width="120" height="60" as="geometry" />
        </mxCell>
        <mxCell id="LSEEJIswdZfOmqSNmd1V-51" value="" style="group" vertex="1" connectable="0" parent="1">
          <mxGeometry x="425" y="260" width="70" height="70" as="geometry" />
        </mxCell>
        <mxCell id="LSEEJIswdZfOmqSNmd1V-52" value="" style="aspect=fixed;pointerEvents=1;shadow=0;dashed=0;html=1;strokeColor=#b85450;labelPosition=center;verticalLabelPosition=bottom;verticalAlign=top;align=center;fillColor=#f8cecc;shape=mxgraph.azure.user;fontSize=21;gradientColor=#ea6b66;sketch=1;" vertex="1" parent="LSEEJIswdZfOmqSNmd1V-51">
          <mxGeometry x="11.5" width="47" height="50" as="geometry" />
        </mxCell>
        <mxCell id="LSEEJIswdZfOmqSNmd1V-53" value="&lt;font style=&quot;font-size: 12px;&quot;&gt;Ketua RT&lt;/font&gt;" style="text;html=1;align=center;verticalAlign=middle;resizable=0;points=[];autosize=1;fontSize=12;strokeWidth=1;sketch=1;" vertex="1" parent="LSEEJIswdZfOmqSNmd1V-51">
          <mxGeometry y="50" width="70" height="20" as="geometry" />
        </mxCell>
        <mxCell id="LSEEJIswdZfOmqSNmd1V-55" value="Verif &amp;amp; Approve" style="text;html=1;align=center;verticalAlign=middle;resizable=0;points=[];autosize=1;" vertex="1" parent="1">
          <mxGeometry x="487" y="274" width="100" height="20" as="geometry" />
        </mxCell>
        <mxCell id="LSEEJIswdZfOmqSNmd1V-57" value="" style="group" vertex="1" connectable="0" parent="1">
          <mxGeometry x="251" y="270" width="69" height="70" as="geometry" />
        </mxCell>
        <mxCell id="LSEEJIswdZfOmqSNmd1V-58" value="" style="aspect=fixed;pointerEvents=1;shadow=0;dashed=0;html=1;strokeColor=#6c8ebf;labelPosition=center;verticalLabelPosition=bottom;verticalAlign=top;align=center;fillColor=#dae8fc;shape=mxgraph.azure.user;fontSize=21;sketch=1;gradientColor=#7EA6E0;" vertex="1" parent="LSEEJIswdZfOmqSNmd1V-57">
          <mxGeometry x="11.335714285714285" width="37.06285714285715" height="39.42857142857143" as="geometry" />
        </mxCell>
        <mxCell id="LSEEJIswdZfOmqSNmd1V-59" value="&lt;font style=&quot;font-size: 12px&quot;&gt;Ketua RW&lt;/font&gt;" style="text;html=1;align=center;verticalAlign=middle;resizable=0;points=[];autosize=1;fontSize=12;strokeWidth=1;sketch=1;" vertex="1" parent="LSEEJIswdZfOmqSNmd1V-57">
          <mxGeometry y="44" width="70" height="20" as="geometry" />
        </mxCell>
        <mxCell id="LSEEJIswdZfOmqSNmd1V-62" value="" style="endArrow=classic;html=1;exitX=-0.036;exitY=0.649;exitDx=0;exitDy=0;exitPerimeter=0;entryX=1.085;entryY=0.541;entryDx=0;entryDy=0;entryPerimeter=0;" edge="1" parent="1" source="LSEEJIswdZfOmqSNmd1V-52" target="LSEEJIswdZfOmqSNmd1V-58">
          <mxGeometry width="50" height="50" relative="1" as="geometry">
            <mxPoint x="310" y="470" as="sourcePoint" />
            <mxPoint x="360" y="420" as="targetPoint" />
          </mxGeometry>
        </mxCell>
        <mxCell id="LSEEJIswdZfOmqSNmd1V-63" value="Verif &amp;amp; Approve" style="text;html=1;align=center;verticalAlign=middle;resizable=0;points=[];autosize=1;" vertex="1" parent="1">
          <mxGeometry x="325" y="270" width="100" height="20" as="geometry" />
        </mxCell>
        <mxCell id="LSEEJIswdZfOmqSNmd1V-68" value="" style="group" vertex="1" connectable="0" parent="1">
          <mxGeometry x="90" y="260" width="85" height="79" as="geometry" />
        </mxCell>
        <mxCell id="LSEEJIswdZfOmqSNmd1V-69" value="" style="pointerEvents=1;shadow=0;dashed=0;html=1;strokeColor=none;labelPosition=center;verticalLabelPosition=bottom;verticalAlign=top;align=center;fillColor=#515151;shape=mxgraph.mscae.system_center.admin_console" vertex="1" parent="LSEEJIswdZfOmqSNmd1V-68">
          <mxGeometry width="60" height="48" as="geometry" />
        </mxCell>
        <mxCell id="LSEEJIswdZfOmqSNmd1V-70" value="Admin Kelurahan" style="text;html=1;align=center;verticalAlign=middle;resizable=0;points=[];autosize=1;" vertex="1" parent="LSEEJIswdZfOmqSNmd1V-68">
          <mxGeometry x="-25" y="59" width="110" height="20" as="geometry" />
        </mxCell>
        <mxCell id="LSEEJIswdZfOmqSNmd1V-71" value="Verif &amp;amp; Approve" style="text;html=1;align=center;verticalAlign=middle;resizable=0;points=[];autosize=1;" vertex="1" parent="1">
          <mxGeometry x="160" y="266" width="100" height="20" as="geometry" />
        </mxCell>
        <mxCell id="LSEEJIswdZfOmqSNmd1V-72" style="edgeStyle=orthogonalEdgeStyle;rounded=0;orthogonalLoop=1;jettySize=auto;html=1;entryX=1;entryY=0.619;entryDx=0;entryDy=0;entryPerimeter=0;" edge="1" parent="1" source="LSEEJIswdZfOmqSNmd1V-58" target="LSEEJIswdZfOmqSNmd1V-69">
          <mxGeometry relative="1" as="geometry" />
        </mxCell>
        <mxCell id="LSEEJIswdZfOmqSNmd1V-74" value="" style="group" vertex="1" connectable="0" parent="1">
          <mxGeometry x="340" y="430" width="110" height="101" as="geometry" />
        </mxCell>
        <mxCell id="LSEEJIswdZfOmqSNmd1V-75" value="" style="html=1;aspect=fixed;shadow=0;align=center;verticalAlign=top;shape=mxgraph.gcp2.certified_industry_standard;sketch=0;fillColor=#a20025;strokeColor=#6F0000;fontColor=#ffffff;" vertex="1" parent="LSEEJIswdZfOmqSNmd1V-74">
          <mxGeometry width="100" height="78" as="geometry" />
        </mxCell>
        <mxCell id="LSEEJIswdZfOmqSNmd1V-76" value="Surat SKTM Digital" style="text;html=1;align=center;verticalAlign=middle;resizable=0;points=[];autosize=1;" vertex="1" parent="LSEEJIswdZfOmqSNmd1V-74">
          <mxGeometry x="-10" y="81" width="120" height="20" as="geometry" />
        </mxCell>
        <mxCell id="LSEEJIswdZfOmqSNmd1V-77" style="edgeStyle=orthogonalEdgeStyle;rounded=0;orthogonalLoop=1;jettySize=auto;html=1;entryX=0.015;entryY=0.459;entryDx=0;entryDy=0;entryPerimeter=0;" edge="1" parent="1" source="LSEEJIswdZfOmqSNmd1V-70" target="LSEEJIswdZfOmqSNmd1V-75">
          <mxGeometry relative="1" as="geometry">
            <Array as="points">
              <mxPoint x="120" y="466" />
            </Array>
          </mxGeometry>
        </mxCell>
        <mxCell id="LSEEJIswdZfOmqSNmd1V-78" value="" style="group" vertex="1" connectable="0" parent="1">
          <mxGeometry x="530" y="431" width="50" height="70" as="geometry" />
        </mxCell>
        <mxCell id="LSEEJIswdZfOmqSNmd1V-79" value="" style="shape=actor;whiteSpace=wrap;html=1;fillColor=#f5f5f5;strokeColor=#666666;fontColor=#333333;sketch=1;" vertex="1" parent="LSEEJIswdZfOmqSNmd1V-78">
          <mxGeometry x="5" width="40" height="50" as="geometry" />
        </mxCell>
        <mxCell id="LSEEJIswdZfOmqSNmd1V-80" value="Warga" style="text;html=1;align=center;verticalAlign=middle;resizable=0;points=[];autosize=1;sketch=1;" vertex="1" parent="LSEEJIswdZfOmqSNmd1V-78">
          <mxGeometry y="50" width="50" height="20" as="geometry" />
        </mxCell>
        <mxCell id="LSEEJIswdZfOmqSNmd1V-81" style="edgeStyle=orthogonalEdgeStyle;rounded=0;orthogonalLoop=1;jettySize=auto;html=1;entryX=0;entryY=0.75;entryDx=0;entryDy=0;" edge="1" parent="1" source="LSEEJIswdZfOmqSNmd1V-75" target="LSEEJIswdZfOmqSNmd1V-79">
          <mxGeometry relative="1" as="geometry" />
        </mxCell>
        <mxCell id="LSEEJIswdZfOmqSNmd1V-82" value="" style="strokeColor=#999999;verticalLabelPosition=bottom;shadow=0;dashed=0;verticalAlign=top;strokeWidth=2;html=1;shape=mxgraph.mockup.misc.printIcon;" vertex="1" parent="1">
          <mxGeometry x="660" y="418" width="90" height="80" as="geometry" />
        </mxCell>
        <mxCell id="LSEEJIswdZfOmqSNmd1V-83" style="edgeStyle=orthogonalEdgeStyle;rounded=0;orthogonalLoop=1;jettySize=auto;html=1;entryX=-0.033;entryY=0.475;entryDx=0;entryDy=0;entryPerimeter=0;" edge="1" parent="1" source="LSEEJIswdZfOmqSNmd1V-79" target="LSEEJIswdZfOmqSNmd1V-82">
          <mxGeometry relative="1" as="geometry" />
        </mxCell>
        <mxCell id="LSEEJIswdZfOmqSNmd1V-84" value="&lt;font style=&quot;font-size: 14px&quot;&gt;Print&lt;/font&gt;" style="text;html=1;align=center;verticalAlign=middle;resizable=0;points=[];autosize=1;" vertex="1" parent="1">
          <mxGeometry x="680" y="501" width="40" height="20" as="geometry" />
        </mxCell>
        <mxCell id="LSEEJIswdZfOmqSNmd1V-86" value="Flow Surat Keterangan Tidak Mampu versi Applikasi MasApp" style="text;html=1;align=center;verticalAlign=middle;resizable=0;points=[];autosize=1;fontSize=21;sketch=1;" vertex="1" parent="1">
          <mxGeometry x="120" y="40" width="580" height="30" as="geometry" />
        </mxCell>
      </root>
    </mxGraphModel>
  </diagram>
</mxfile>
